<?xml version="1.0" encoding="UTF-8"?>
<svg id="Layer_1" xmlns="http://www.w3.org/2000/svg" viewBox="0 0 429.47 284.94">
  <defs>
    <style>
      .cls-1 {
        fill: #465de8;
      }

      .cls-2 {
        fill: #fbfcf1;
      }

      .cls-3 {
        fill: #4860e9;
      }

      .cls-4 {
        fill: #435ae8;
      }

      .cls-5 {
        fill: #455de8;
      }

      .cls-6 {
        fill: #5d71e9;
      }

      .cls-7 {
        fill: #4d63e9;
      }

      .cls-8 {
        fill: #425ae8;
      }
    </style>
  </defs>
  <path class="cls-8" d="M92.23,36.6c15.94-.75,30.42,3.92,44.06,11.8,14.12,8.16,28.56,8.28,43.1,1.29,14.77-7.1,29.68-13.17,46.54-13.42,19.97-.29,37.87,5.37,54.25,16.48,1.69,1.15,3.38,2.29,5.08,3.43,13.75,9.22,22.44,9.19,36.23.22,24.21-15.75,49.33-17.08,74.15-2.36,23.86,14.15,34.81,36.12,33.76,63.78-1.11,29.11-21.84,53.44-52.7,62.32-8.42,2.42-16.77,4.76-23.74,10.52-8.71,7.2-13.13,16.78-16.3,27.31-9.43,31.29-29.76,51.85-60.77,62.47-40.42,13.84-83.99-5.68-103.74-37.59-1.53-2.48-2.91-5.05-4.43-7.54-11.51-18.99-28.35-26.07-49.93-20.51-34.75,8.95-65.63,1.69-90.95-23.63C1.96,166.27-5.69,135.67,4.17,101.85c9.88-33.91,33.34-54.45,67.26-63.39,6.85-1.8,13.79-2.07,20.8-1.86Z"/>
  <path class="cls-4" d="M149.27,3.31c10.7.08,19.45,8.93,19.35,19.55-.1,9.61-8.47,18.85-17.04,18.81-12.21-.07-21.58-8.61-21.37-19.48.2-10.39,8.84-18.95,19.06-18.87Z"/>
  <path class="cls-5" d="M257.87,12.39c.12-6.83,5.72-12.5,11.13-12.38,5.44.12,11.31,6.1,11.19,11.38-.14,5.6-6.02,11.74-11.26,11.07-6.35-.81-10.58-4.29-11.06-10.06Z"/>
  <path class="cls-3" d="M374.93,234.43c-1.23,4.34-4.25,5.2-7.81,1.8-6.75-6.46-4.82-20.73,3.48-25.01,4.53-2.33,6.64-.73,6.13,4.28-.23,2.3-.68,4.58-1.03,6.87.16.02.31,8.25-.77,12.07Z"/>
  <path class="cls-7" d="M398.24,226.88c-.8,6.36-2.91,11.59-9.68,13.15-2.58.6-3.47-1.37-3.82-3.64-.67-4.4,5.39-14.82,9.57-15.61,6.32-1.2,2.7,4.04,3.93,6.1Z"/>
  <path class="cls-2" d="M245.4,99.6c1.86-6.74,6.06-9.88,13.04-7.98,2.87.78,5.12-.43,7.58-1.17,14.63-4.39,27.09-.53,33.88,10.54,7.98,13.01,6.83,28.72-3.06,39.69,2.04,2.69,5.5,2.5,8.16,3.88,4.97,2.57,9.62,5.43,13.04,10,4.05,5.4,6.8,11.57,3.92,17.89-2.96,6.5-10,5.98-16.1,6.44-7.05.53-10.43-3.56-13.03-9.39-1.87-4.21-4.6-8.04-6.94-12.04-2.71-.97-3.6-3.72-5.36-5.46.08.09-.28-.1-.28-.1,0,0,.33.5.4.57,1.75,2.14,2.58,4.59,3.23,7.12,2.02,6.77,4.38,13.81-2.29,19.27-6.8,5.56-14.96,5.91-23.13,3.95-5.32-1.28-8.18-5.37-9.04-10.62-.51-3.13-.96-6.45-.47-9.53,2.96-18.38.77-36.36-3.62-54.22-1.42-2.96-2.3-5.91.07-8.84Z"/>
  <path class="cls-2" d="M49.71,162.9c3.49-18.34,4.14-39.61,5.53-60.81.15-2.3.83-4.59,1.48-6.82,1.69-5.81,4.26-10.92,10.92-12.37,6.26-1.37,10.15,2.49,13.01,6.88,12.39,19.01,25.19,37.72,38.48,56.11,2.1,2.9,3.01,7,3.46,10.67.71,5.8-1.44,9.81-7.91,11.5-19.78,5.18-22.3,3.79-26.74-16.74-.98-4.55-1.57-9.18-2.63-13.71-.54-2.31.13-6.01-3.7-5.88-2.48.09-5.31.94-7.26,2.42-3,2.27-.1,4.71.93,6.83,3.45,7.07,6.96,14.14,8.81,21.81,2.16,8.94.08,12.01-8.94,14.32-2.82.72-5.65,1.41-8.48,2.08-13.21,3.14-17.21-.07-16.97-16.3Z"/>
  <path class="cls-2" d="M242.02,106.59c-6.6,4.29-13.63-1.65-20.85.89,2.23,4.23,6.42,3.61,9.73,4.71,5.44,1.81,11.07,3.82,9.7,11.15-1.27,6.78-6.97,5.63-11.89,5.75-3.74.09-9.22-2.38-10.12,3.5-.96,6.22,3.56,9.39,9.25,10.7,13.96,3.22,18.29,9.24,16.06,22.44-1.94,11.49-11.19,18.14-23.54,16.92-20.45-2.02-26.61-7.85-29.57-28.41-2.61-18.14.39-35.52,8.87-51.64,9.37-17.81,32.09-19.02,43.89-2.78,2.28,2.89,1.24,5.02-1.53,6.76Z"/>
  <path class="cls-2" d="M129.4,127.92c1.31-14.5-.32-26.9-2.23-39.33-1.53-9.97,2.26-14.63,10.31-13.87,5.21.49,7.84,3.54,8.54,8.39,1.16,8.07,2.05,16.18,3.21,24.24.54,3.74,1.17,7.51,2.25,11.12.69,2.3.97,5.8,4.37,5.65,2.73-.12,3.2-3.14,3.84-5.28,2.93-9.76,5.79-19.54,8.51-29.36,1.61-5.8,2.93-12.12,10.98-10.64,7.54,1.39,8.63,7.65,7.31,13.64-4.5,20.43-8.89,40.92-14.65,61.01-3.36,11.72-11.64,16.66-21.26,15.93-10.96-.83-17.46-6.83-19.71-19.87-1.33-7.7-1.1-15.67-1.47-21.64Z"/>
  <path class="cls-2" d="M314.57,83.9c6.49.62,12.54,5.88,19.07,10.14,7.91,5.17,8.95,4.84,11.67-4.3,1.99-6.67,3.33-13.61,7.54-19.38,2.7-3.7,6.12-6.61,11.07-4.68,4.75,1.85,4.64,6.21,4.35,10.38-.38,5.42-2.96,10.04-5.83,14.4-7.2,10.93-6.52,21.2,1.79,31.24,5.19,6.27,10.39,12.57,15.05,19.23,6.79,9.7,5.33,14.11-5.43,18.43-5.39,2.16-10.89,4.08-16.24,6.33-7.06,2.96-11.4.42-12.99-6.62-1.78-7.93-3.33-15.94-4.35-24-1.92-15.22-8.61-26.25-24.26-30.51-3.03-.82-5.89-2.5-8.62-4.14-3.75-2.26-6.26-5.63-4.86-10.16,1.48-4.76,5.36-6.6,12.03-6.36Z"/>
  <path class="cls-6" d="M280.85,149.96c2.41,2,4.14,4.46,5.04,7.48-.67.71-1.34,1.42-2,2.14-1.67-2.46-3.35-4.92-5.02-7.38.18-1.17.85-1.91,1.99-2.24Z"/>
  <path class="cls-1" d="M272.69,107.74c.77-2.67.38-7.14,4.49-5.89,5.95,1.81,7.73,7.47,8.05,13.13.16,2.96-1.48,6.4-5,5.74-7.11-1.32-6.37-7.86-7.54-12.98Z"/>
  <path class="cls-6" d="M280.85,149.96c-.66.75-1.32,1.49-1.99,2.24-1.41-1.33-3.66-3.31-2.15-4.71,2.11-1.96,3.05,1.03,4.14,2.48Z"/>
  <path class="cls-1" d="M66.93,106.41c.35-3.34-.46-7.39,3.46-8.23,3.36-.72,4.87,2.85,5.9,5.39,1.75,4.3,5.94,8.46,2.43,13.57-1.6,2.33-4.81,3.06-7.1,1.94-5.44-2.65-3.8-8.35-4.7-12.67Z"/>
</svg>